<?xml version="1.0" encoding="utf-8"?>
<!-- Generator: Adobe Illustrator 24.0.3, SVG Export Plug-In . SVG Version: 6.00 Build 0)  -->
<svg version="1.1" id="Layer_1" xmlns="http://www.w3.org/2000/svg" xmlns:xlink="http://www.w3.org/1999/xlink" x="0px" y="0px"
	 viewBox="0 0 96 96" style="enable-background:new 0 0 96 96;" xml:space="preserve">
<style type="text/css">
	.st0{fill:#FFFFFF;}
</style>
<rect class="st0" width="96" height="96"/>
<g>
	<g>
		<path d="M21.7,27c0,1.4-0.3,2.8-0.8,4.1c-0.5,1.2-1.3,2.4-2.2,3.3c-1,1-2.1,1.7-3.3,2.2c-1.3,0.5-2.7,0.8-4.1,0.8h-7V16.5h7
			c1.4,0,2.8,0.3,4.1,0.8c1.2,0.5,2.4,1.3,3.3,2.2c1,1,1.7,2.1,2.2,3.3C21.5,24.2,21.7,25.6,21.7,27z M18.4,27
			c0-3.9-3.2-7.1-7.1-7.1H7.6v14.3h3.7C15.2,34.1,18.4,30.9,18.4,27z"/>
		<path d="M38.2,19.8H27.4v14.3h10.8v3.3H24.1V16.5h14.1V19.8z M36.4,28.6l-7.1,0l0-3.3l7.1,0L36.4,28.6z"/>
		<path d="M61.2,16.5c-2,3.8-3.9,7.7-5.9,11.5c-1.6,3.1-3.1,6.1-4.7,9.2c0,0,0,0.1-0.1,0.1c0,0,0-0.1-0.1-0.1
			c-0.3-0.6-0.6-1.2-0.9-1.8c-1-1.9-1.9-3.9-2.9-5.8c-0.9-1.7-1.7-3.4-2.6-5.1c-0.9-1.9-1.9-3.8-2.8-5.6c-0.4-0.8-0.8-1.6-1.2-2.5
			h3.7c0.3,0.5,0.6,1.1,0.8,1.6c0.7,1.4,1.4,2.7,2.1,4.1c0.9,1.9,1.9,3.7,2.8,5.6c0.3,0.7,0.7,1.4,1,2.1c0,0,0,0,0,0.1
			c0,0,0,0.1,0.1,0.1c0,0,0-0.1,0.1-0.1c1.5-3,3-5.9,4.5-8.9c0.8-1.5,1.6-3.1,2.4-4.6H61.2z"/>
	</g>
	<polygon points="15,83 14.7,83 81.7,13 82,13 	"/>
	<g>
		<g>
			<path d="M47.9,58.4c1.4,0,4.2-0.3,5.8-0.3c6.2,0,10,4.2,10,12s-3.9,12-10,12c-1.6,0-4.4-0.3-5.8-0.3c-1.2,0-2.1,0.1-4.7,0.3V82
				c3.6-0.5,3.8-0.7,3.8-2.7V60.9c0-2-0.2-2.2-3.8-2.7v-0.2C45.8,58.3,46.7,58.4,47.9,58.4z M48.7,81.8c0.7,0,3.5,0.3,5,0.3
				c5.4,0,8.1-4.1,8.1-11.9S59,58.2,53.7,58.2c-1.5,0-4.3,0.3-5,0.3V81.8z"/>
		</g>
		<g>
			<path d="M67,74.7L67,74.7c0,5.4,1.2,7.3,4.6,7.3c2.5,0,5.1-2.1,5.6-4.7h0.1c-0.5,2.7-3.2,4.8-5.7,4.8c-3.9,0-6.3-3.2-6.3-7.3
				c0-4.4,2.8-7.4,6.2-7.4c1.8,0,3.5,0.8,4.6,2.2c2.3,2.4,4.9,6,10.6,5.3c2.1-0.3,4.2-1.4,4.2-2.8c0-1.2-0.8-1.9-2-2.5l-5.3-2.5
				c-1.4-0.7-2.2-1.8-2.2-2.9c0-0.7,0.2-1.3,0.6-2c0.9-1.3,2.4-2,4.3-2c1.6,0,2.5,0.5,3.2,0.5c0.4,0,0.7-0.1,1-0.6l0.3,0.2
				c-0.1,0.5-0.2,1.1-0.2,1.8c0,0.8,0.1,1.4,0.3,3.8h-0.1c-0.5-4.1-1.7-5.6-4.5-5.6c-2.3,0-4,1.1-4,2.5c0,1.6,0.7,2.2,2.3,2.9
				l5.2,2.5c1.3,0.6,1.9,1.5,1.9,2.6c0,2.1-2.3,3.9-5.1,4.2c-3.9,0.5-6.5-1.3-7.8-1.3c-0.5,0-0.9,0.3-1.2,1h0H67z M67,74.6h8.9
				c-0.1-5-1.7-7.2-4.4-7.2C68.4,67.4,67,69.6,67,74.6z"/>
		</g>
	</g>
</g>
</svg>
